<svg xmlns="http://www.w3.org/2000/svg" version="1.1" xmlns:xlink="http://www.w3.org/1999/xlink" width="1000" height="1000"><style>
    #light-icon {
      display: inline;
    }
    #dark-icon {
      display: none;
    }

    @media (prefers-color-scheme: dark) {
      #light-icon {
        display: none;
      }
      #dark-icon {
        display: inline;
      }
    }
  </style><g id="light-icon"><svg xmlns="http://www.w3.org/2000/svg" version="1.1" xmlns:xlink="http://www.w3.org/1999/xlink" width="1000" height="1000"><g><g transform="matrix(3.90625,0,0,3.90625,0,0)"><svg xmlns="http://www.w3.org/2000/svg" width="256" height="256" viewBox="0 0 256 256" fill="none"><path d="M32 48.0002C32 45.7911 33.7909 44.0002 36 44.0002H63C65.2091 44.0002 67 45.7911 67 48.0002V237C67 239.209 65.2091 241 63 241H36C33.7909 241 32 239.209 32 237V48.0002Z" fill="#282828"></path><path d="M75 64.0002C75 61.7911 76.7909 60.0002 79 60.0002H116C118.209 60.0002 120 61.7911 120 64.0002V237C120 239.209 118.209 241 116 241H79C76.7909 241 75 239.209 75 237V64.0002Z" fill="#282828"></path><path d="M122.209 19.9313C122.094 17.7252 123.788 15.843 125.995 15.7274L154.955 14.2097C157.161 14.0941 159.043 15.7887 159.159 17.9949L170.516 234.697C170.631 236.904 168.936 238.786 166.73 238.901L137.77 240.419C135.564 240.535 133.682 238.84 133.566 236.634L122.209 19.9313Z" fill="#282828"></path><path d="M164.626 72.1131C164.28 69.9312 165.769 67.8822 167.951 67.5366L192.643 63.6258C194.825 63.2802 196.874 64.7688 197.219 66.9508L223.188 230.907C223.533 233.089 222.045 235.138 219.863 235.484L195.17 239.394C192.988 239.74 190.939 238.251 190.594 236.069L164.626 72.1131Z" fill="#282828"></path><path d="M32 70.0002H67V90.0002H32V70.0002Z" fill="white"></path><path d="M75 84.0002H120V107H75V84.0002Z" fill="white"></path><path d="M123 33.9368L159.949 32.0003L160.787 47.9784L123.837 49.9148L123 33.9368Z" fill="white"></path><path d="M167 87.1624L199.594 82L202.097 97.803L169.503 102.965L167 87.1624Z" fill="white"></path><path d="M75 221H120V230H75V221Z" fill="white"></path></svg></g></g></svg></g><g id="dark-icon"><svg xmlns="http://www.w3.org/2000/svg" version="1.1" xmlns:xlink="http://www.w3.org/1999/xlink" width="1000" height="1000"><g clip-path="url(#SvgjsClipPath1055)"><rect width="1000" height="1000" fill="#ffffff"></rect><g transform="matrix(3.125,0,0,3.125,100,100)"><svg xmlns="http://www.w3.org/2000/svg" width="256" height="256" viewBox="0 0 256 256" fill="none"><path d="M32 48.0002C32 45.7911 33.7909 44.0002 36 44.0002H63C65.2091 44.0002 67 45.7911 67 48.0002V237C67 239.209 65.2091 241 63 241H36C33.7909 241 32 239.209 32 237V48.0002Z" fill="#282828"></path><path d="M75 64.0002C75 61.7911 76.7909 60.0002 79 60.0002H116C118.209 60.0002 120 61.7911 120 64.0002V237C120 239.209 118.209 241 116 241H79C76.7909 241 75 239.209 75 237V64.0002Z" fill="#282828"></path><path d="M122.209 19.9313C122.094 17.7252 123.788 15.843 125.995 15.7274L154.955 14.2097C157.161 14.0941 159.043 15.7887 159.159 17.9949L170.516 234.697C170.631 236.904 168.936 238.786 166.73 238.901L137.77 240.419C135.564 240.535 133.682 238.84 133.566 236.634L122.209 19.9313Z" fill="#282828"></path><path d="M164.626 72.1131C164.28 69.9312 165.769 67.8822 167.951 67.5366L192.643 63.6258C194.825 63.2802 196.874 64.7688 197.219 66.9508L223.188 230.907C223.533 233.089 222.045 235.138 219.863 235.484L195.17 239.394C192.988 239.74 190.939 238.251 190.594 236.069L164.626 72.1131Z" fill="#282828"></path><path d="M32 70.0002H67V90.0002H32V70.0002Z" fill="white"></path><path d="M75 84.0002H120V107H75V84.0002Z" fill="white"></path><path d="M123 33.9368L159.949 32.0003L160.787 47.9784L123.837 49.9148L123 33.9368Z" fill="white"></path><path d="M167 87.1624L199.594 82L202.097 97.803L169.503 102.965L167 87.1624Z" fill="white"></path><path d="M75 221H120V230H75V221Z" fill="white"></path></svg></g></g><defs><clipPath id="SvgjsClipPath1055"><rect width="1000" height="1000" x="0" y="0" rx="250" ry="250"></rect></clipPath></defs></svg></g></svg>